<svg xmlns="http://www.w3.org/2000/svg" width="25" height="25" viewBox="0 0 27.991 27.99">
  <path id="codepen" d="M.531,19.258l12.793,8.53a1.216,1.216,0,0,0,1.344,0l12.793-8.53a1.222,1.222,0,0,0,.531-1V9.73a1.222,1.222,0,0,0-.531-1L14.667.2a1.218,1.218,0,0,0-1.344,0L.531,8.731A1.222,1.222,0,0,0,0,9.73v8.528a1.222,1.222,0,0,0,.531,1Zm12.262,5.281L3.374,18.259l4.2-2.812,5.217,3.484Zm2.4,0V18.931l5.217-3.484,4.2,2.812Zm10.388-8.53-3.015-2.014,3.015-2.015ZM15.2,3.451,24.617,9.73l-4.2,2.812L15.2,9.059Zm-1.2,7.7,4.249,2.843L14,16.838,9.747,13.994Zm-1.2-7.7V9.059L7.576,12.542,3.374,9.73ZM2.406,11.981h0L5.421,14,2.406,16.011Z" transform="translate(0 0)" fill="#707070" opacity="0.9" />
</svg>
