<svg id="ojo" xmlns="http://www.w3.org/2000/svg" width="25" height="25" viewBox="0 0 33.692 21.087">
  <g id="Grupo_21" data-name="Grupo 21" transform="translate(0 0)">
    <g id="Grupo_20" data-name="Grupo 20">
      <path id="Trazado_1" data-name="Trazado 1" d="M33.568,116.778c-.265-.414-6.642-10.116-16.721-10.116C8.2,106.662.49,116.308.166,116.719a.8.8,0,0,0,0,.973c.324.411,8.032,10.057,16.681,10.057S33.2,118.1,33.527,117.692A.8.8,0,0,0,33.568,116.778Zm-16.721,9.465c-6.934,0-13.526-7.094-15.2-9.037,1.672-1.945,8.258-9.037,15.2-9.037,8.113,0,13.839,7.084,15.238,9C30.469,119.046,23.839,126.243,16.846,126.243Z" transform="translate(0 -106.662)" fill="#707070"/>
    </g>
  </g>
  <g id="Grupo_23" data-name="Grupo 23" transform="translate(11.823 4.793)">
    <g id="Grupo_22" data-name="Grupo 22" transform="translate(0 0)">
      <path id="Trazado_2" data-name="Trazado 2" d="M175.811,170.662a5.149,5.149,0,1,0,5.149,5.149A5.154,5.154,0,0,0,175.811,170.662Zm0,9.01a3.862,3.862,0,1,1,3.862-3.862A3.866,3.866,0,0,1,175.811,179.672Z" transform="translate(-170.662 -170.662)" fill="#707070"/>
    </g>
  </g>
</svg>
