<svg xmlns="http://www.w3.org/2000/svg" width="30" height="30" fill="#707070" viewBox="0 0 45 45">
  <path id="github" d="M22.5,0A22.5,22.5,0,1,0,45,22.588,22.653,22.653,0,0,0,22.5,0Zm3.955,41.968a19.973,19.973,0,0,1-7.91,0V35.8a3.748,3.748,0,0,1,.923-2.716,28.835,28.835,0,0,0,1.635-2.4l-2.03-.317c-5.221-.765-7.277-3.481-8.095-5.59a8.967,8.967,0,0,1,1.4-8.6,1.59,1.59,0,0,0,.317-1.53,7.767,7.767,0,0,1-.079-3.876A12.028,12.028,0,0,1,16.647,12.7a1.894,1.894,0,0,0,1.107.264,19.162,19.162,0,0,1,4.773-.686,16.156,16.156,0,0,1,4.4.633,1.9,1.9,0,0,0,1.424-.211,11.713,11.713,0,0,1,4.034-1.925,7.771,7.771,0,0,1-.079,3.876,1.588,1.588,0,0,0,.317,1.53,8.968,8.968,0,0,1,1.4,8.6c-.817,2.109-2.874,4.825-8.095,5.59l-2.03.317a28.2,28.2,0,0,0,1.635,2.4,3.75,3.75,0,0,1,.923,2.716Zm2.637-.765V35.8a6.323,6.323,0,0,0-.738-3.243c4.008-1.081,6.856-3.454,8.121-6.855a11.593,11.593,0,0,0-1.5-10.811c.4-1.766.4-4.588-.553-5.906a2.058,2.058,0,0,0-1.74-.9h-.026C30.607,8.2,29,9.226,27.273,10.274a18.6,18.6,0,0,0-4.8-.633,18.214,18.214,0,0,0-4.719.633c-1.816-1.1-3.41-2.081-5.511-2.188a2.022,2.022,0,0,0-1.661.9c-.949,1.318-.949,4.14-.553,5.906A11.6,11.6,0,0,0,8.525,25.7c1.265,3.4,4.113,5.775,8.121,6.855a5.733,5.733,0,0,0-.688,2.31,3.515,3.515,0,0,1-2.165.178A2.918,2.918,0,0,1,12.1,33.6c-1.047-1.759-2.831-3.2-4.861-3.009l.232,2.626c.94-.086,1.876.909,2.362,1.729a5.428,5.428,0,0,0,6.073,2.706V41.2a19.864,19.864,0,1,1,13.184,0Zm0,0" fill="#707070"/>
</svg>
