<svg xmlns="http://www.w3.org/2000/svg" width="25" height="25" viewBox="0 0 30.833 22.363">
  <path id="Trazado_3" data-name="Trazado 3" d="M29.517,34.5l-8.524-6.836a1.233,1.233,0,0,0-1.5,0,.752.752,0,0,0-.317.6v3.418H15.449q-11.87,0-14.567,5.381A10.009,10.009,0,0,0,0,41.508q0,2.216,2.114,6.022.05.094.175.32t.225.4a1.491,1.491,0,0,0,.217.294.6.6,0,0,0,.466.227.548.548,0,0,0,.391-.133.44.44,0,0,0,.141-.334,2.2,2.2,0,0,0-.042-.354,2.235,2.235,0,0,1-.042-.314q-.083-.908-.083-1.642a9.2,9.2,0,0,1,.291-2.417,6.375,6.375,0,0,1,.808-1.849A4.983,4.983,0,0,1,5.993,40.38a8.2,8.2,0,0,1,1.756-.928,11.267,11.267,0,0,1,2.214-.568q1.273-.207,2.564-.287t2.922-.08h3.729v3.418a.752.752,0,0,0,.316.6,1.234,1.234,0,0,0,1.5,0L29.516,35.7a.729.729,0,0,0,0-1.2Z" transform="translate(0.5 -26.908)" fill="none" stroke="#707070" stroke-width="1"/>
</svg>
